<svg width="365" height="183" viewBox="0 0 365 183" fill="none" xmlns="http://www.w3.org/2000/svg">
<path opacity="0.7" d="M49.0744 92.0837C49.7755 90.7992 51.1221 90 52.5855 90H312.037C313.496 90 314.839 90.7942 315.542 92.0724L361.74 176.072C363.206 178.738 361.277 182 358.235 182H6.74009C3.70341 182 1.7742 178.749 3.22898 176.084L49.0744 92.0837Z" fill="#E8E8E8"/>
<path opacity="0.2" d="M66.6901 89.0721C67.3233 87.6079 68.7661 86.66 70.3614 86.66H296.775C298.407 86.66 299.875 87.6513 300.485 89.1648L313.785 122.165C314.845 124.794 312.91 127.66 310.075 127.66H56.0882C53.2108 127.66 51.2746 124.713 52.4169 122.072L66.6901 89.0721Z" fill="#C7C7C7"/>
<g opacity="0.9" clip-path="url(#clip0_26_346)">
<path d="M85.6931 82.3701H283.678C289.247 82.3701 293.689 86.6611 293.689 91.8622V96.7538C293.689 101.942 289.26 106.246 283.678 106.246H85.6931C80.1242 106.246 75.6823 101.955 75.6823 96.7538V91.8622C75.6823 86.6737 80.1117 82.3702 85.6931 82.3701Z" fill="#E9EDF2" stroke="#D9DEE1" stroke-width="2"/>
<path d="M85.5511 60.4433C81.9234 60.4433 80.6288 58.4441 80.6288 56.5725V8.52133C80.6288 5.84158 85.2239 0 89.7762 0H179.074C181.577 0 183.128 1.7865 183.128 4.65057V56.5725C183.128 59.1389 181.762 60.4433 179.074 60.4433H85.5511Z" fill="#D9DEE1"/>
<path d="M181.577 56.5584C181.577 58.274 180.937 58.8836 179.074 58.8836H85.5511C83.7017 58.8836 82.1937 58.274 82.1937 56.5584V8.52133C82.1937 6.80572 86.0206 1.54547 89.7762 1.54547H179.074C180.923 1.54547 181.577 2.93497 181.577 4.65058V56.5725V56.5584Z" fill="#E9EDF2"/>
<path d="M187.054 60.4433C184.366 60.4433 183 59.1389 183 56.5725V4.65057C183 1.7865 184.551 0 187.054 0H276.352C280.904 0 285.499 5.84158 285.499 8.52133V56.5584C285.499 58.4299 284.205 60.4291 280.577 60.4291H187.054V60.4433Z" fill="#D9DEE1"/>
<path d="M184.551 56.5584C184.551 58.274 185.191 58.8836 187.054 58.8836H280.577C282.426 58.8836 283.934 58.274 283.934 56.5584V8.52133C283.934 6.80572 280.108 1.54547 276.352 1.54547H187.054C185.205 1.54547 184.551 2.93497 184.551 4.65058V56.5725V56.5584Z" fill="#E9EDF2"/>
<path d="M91.4122 82.888C84.8398 82.888 81.0414 78.6202 81.0414 73.36V69.6452C81.0414 64.3991 84.8398 60.1172 91.4122 60.1172H277.974C284.546 60.1172 288.344 64.3849 288.344 69.6452V73.36C288.344 78.6061 284.546 82.888 277.974 82.888H91.4122Z" fill="#D9DEE1"/>
<path d="M286.794 73.36C286.794 77.7553 283.707 81.3283 277.974 81.3283H91.4122C85.6791 81.3283 82.592 77.7553 82.592 73.36V69.6452C82.592 65.2498 85.6791 61.6768 91.4122 61.6768H277.974C283.707 61.6768 286.794 65.2498 286.794 69.6452V73.36Z" fill="#E9EDF2"/>
<path d="M60.7407 121V115.187H59.688C54.339 115.187 50 110.097 50 103.83V43.3865C50 37.1337 54.3532 32.0294 59.688 32.0294H79.4054C84.7544 32.0294 89.0934 37.1195 89.0934 43.3865V103.83C89.0934 110.083 84.7402 115.187 79.4054 115.187H78.3527V121H60.7407Z" fill="#D9DEE1"/>
<path d="M79.4196 34.0995H59.688C55.4771 34.0995 52.0486 38.268 52.0486 43.4007V103.844C52.0486 108.977 55.4629 113.145 59.688 113.145H62.7893V118.958H76.2899V113.145H79.3912C83.6021 113.145 87.0306 108.977 87.0306 103.844V43.3865C87.0306 38.2538 83.6163 34.0853 79.3912 34.0853L79.4196 34.0995Z" fill="#E9EDF2"/>
<path d="M287.633 121V115.187H286.58C281.231 115.187 276.892 110.097 276.892 103.83V43.3865C276.892 37.1337 281.246 32.0294 286.58 32.0294H306.298C311.647 32.0294 316 37.1195 316 43.3865V103.83C316 110.083 311.647 115.187 306.298 115.187H305.245V121H287.619H287.633Z" fill="#D9DEE1"/>
<path d="M306.298 34.0995H286.58C282.369 34.0995 278.941 38.268 278.941 43.4007V103.844C278.941 108.977 282.355 113.145 286.58 113.145H289.682V118.958H303.182V113.145H306.284C310.494 113.145 313.923 108.977 313.923 103.844V43.3865C313.923 38.2538 310.509 34.0853 306.284 34.0853L306.298 34.0995Z" fill="#E9EDF2"/>
</g>
<path opacity="0.2" d="M96.8175 141.573C97.4092 140.024 98.8957 139 100.554 139H264.88C266.522 139 267.997 140.003 268.6 141.529L282.836 177.529C283.875 180.154 281.94 183 279.117 183H86.8089C84.006 183 82.0722 180.192 83.0721 177.573L96.8175 141.573Z" fill="#C7C7C7"/>
<g clip-path="url(#clip1_26_346)">
<path d="M253.252 147.336H110.395V152.242H253.252V147.336Z" fill="#DBDBDB"/>
<path d="M107.986 168H102.478C101.628 168 101.023 167.151 101.288 166.339L112.889 131.015C113.059 130.5 113.541 130.147 114.08 130.147H123.027C123.924 130.147 124.538 131.082 124.179 131.912L109.139 167.227C108.94 167.695 108.487 167.99 107.986 167.99V168Z" fill="#DBDBDB"/>
<path d="M258.014 168H263.522C264.372 168 264.977 167.151 264.712 166.339L253.111 131.025C252.941 130.509 252.459 130.156 251.92 130.156H242.973C242.076 130.156 241.462 131.092 241.821 131.922L256.861 167.236C257.06 167.704 257.513 168 258.014 168Z" fill="#DBDBDB"/>
<path d="M99.4355 124.5H266.564C267.076 124.5 267.5 124.921 267.5 125.451V132.962C267.5 133.492 267.076 133.913 266.564 133.913H99.4355C98.9236 133.913 98.5 133.492 98.5 132.962V125.451C98.5 124.921 98.9236 124.5 99.4355 124.5Z" fill="#EBEEF3" stroke="#E1E2E4"/>
</g>
<defs>
<clipPath id="clip0_26_346">
<rect width="266" height="121" fill="white" transform="translate(50)"/>
</clipPath>
<clipPath id="clip1_26_346">
<rect width="170" height="44" fill="white" transform="translate(98 124)"/>
</clipPath>
</defs>
</svg>
